Title: Querida voy a comprar cigarrillos y vuelvo

Country: Argentina (2011)

Directors: Mariano Cohn, Gastón Duprat

Writers: Mariano Cohn, Gastón Duprat

Stars: Daniel Aráoz, Diego Bliffeld and Stefany Carr Rollitt

Language: Spanish

Subtitle: English

Plot: The film takes places in different time periods and countries. It narrates the story of a common man, who after entering into a deal with a strange character with superpowers, has the possibility of going back to his own past and to live again his youth. Ernesto, the main character, will try to recover lost opportunities and to curb certain behaviors in order to change his gray and insipid present. Despite having the advantage of knowing all the necessary information about the future, experience will show him that this flat personality and his resentment can go beyond these benefits and that there is no possible excuse to overcome his infinite mediocrity. 

Imdb: http://www.imdb.com/title/tt1756692/

Rip Specs:


General
Complete name                    : Querida.Voy.a.Comprar.Cigarrillos.y.Vuelvo.2011.DVDRip.HORiZON-ArtSubs
Format                           : AVI
Format/Info                      : Audio Video Interleave
File size                        : 1.36 GiB
Duration                         : 1h 20mn
Overall bit rate                 : 2 435 Kbps
Writing application              : FairUse Wizard - http://fairusewizard.com
Writing library                  : The best and REALLY easy backup tool

Video
ID                               : 0
Format                           : MPEG-4 Visual
Format profile                   : Advanced Simple@L5
Format settings, BVOP            : 1
Format settings, QPel            : No
Format settings, GMC             : No warppoints
Format settings, Matrix          : Default (MPEG)
Muxing mode                      : Packed bitstream
Codec ID                         : XVID
Codec ID/Hint                    : XviD
Duration                         : 1h 20mn
Bit rate                         : 1 977 Kbps
Width                            : 688 pixels
Height                           : 384 pixels
Display aspect ratio             : 16:9
Frame rate                       : 23.976 fps
Color space                      : YUV
Chroma subsampling               : 4:2:0
Bit depth                        : 8 bits
Scan type                        : Progressive
Compression mode                 : Lossy
Bits/(Pixel*Frame)               : 0.312
Stream size                      : 1.11 GiB (81%)
Writing library                  : XviD 1.2.0.dev47 (UTC 2006-11-01)

Audio
ID                               : 1
Format                           : AC-3
Format/Info                      : Audio Coding 3
Mode extension                   : CM (complete main)
Codec ID                         : 2000
Duration                         : 1h 20mn
Bit rate mode                    : Constant
Bit rate                         : 448 Kbps
Channel(s)                       : 6 channels
Channel positions                : Front: L C R, Side: L R, LFE
Sampling rate                    : 48.0 KHz
Bit depth                        : 16 bits
Compression mode                 : Lossy
Stream size                      : 257 MiB (18%)
Alignment                        : Split accross interleaves
Interleave, duration             : 42 ms (1.00 video frame)
Interleave, preload duration     : 500 ms
